<svg width="76" height="98" viewBox="0 0 76 98" fill="none" xmlns="http://www.w3.org/2000/svg">
<g clip-path="url(#clip0_4034_735)">
<mask id="mask0_4034_735" style="mask-type:alpha" maskUnits="userSpaceOnUse" x="0" y="-1" width="76" height="100">
<mask id="mask1_4034_735" style="mask-type:luminance" maskUnits="userSpaceOnUse" x="-56" y="-55" width="192" height="191">
<path d="M-55.6962 -54.7055H135.672V135.565H-55.6962V-54.7055Z" fill="white"/>
</mask>
<g mask="url(#mask1_4034_735)">
<path d="M26.1038 -0.0340805C25.6278 2.46604 25.3758 5.01045 25.3758 7.64795C25.3758 15.4991 28.4914 22.1012 30.3637 26.8806C32.3406 31.8864 34.4146 37.1204 34.4146 43.9489C34.4146 49.7508 32.9624 54.7584 29.7403 62.0418H23.916C27.2463 56.1246 29.2194 49.864 29.2194 42.9244C29.2194 37.009 26.6227 31.4297 24.5414 26.0825C22.2545 20.1653 20.1748 14.3614 20.1748 6.62164C20.1748 4.39248 20.3859 2.16152 20.761 -0.0340805H0.0586548V75.3906H49.7014V13.3165H54.8968V75.3906H75.9203V-0.0340805H26.1038Z" fill="#0F0F0F"/>
<path d="M15.2703 85.3585L15.2131 84.9629L15.1782 84.722L15.0702 84.9408L8.66503 97.9193L8.61169 98.0276H8.73299H10.3238H10.3708L10.3917 97.986L14.3206 90.0842L15.4154 97.9627L15.4244 98.0276H15.4903H17.0165H17.1038L17.0915 97.9417L15.2703 85.3585Z" fill="#0F0F0F"/>
<path d="M2.06328 84.9373L1.95503 84.7202L1.9206 84.9601L1.86322 85.3586L0.0512372 97.9417L0.0386353 98.0277H0.125949H1.62581H1.69174L1.70074 97.9625L2.79262 89.999L6.78136 97.9858L6.80229 98.0277H6.8491H8.46395H8.58592L8.53191 97.9191L2.06328 84.9373Z" fill="#0F0F0F"/>
<path d="M62.5795 85.2941H62.5039V85.3692V97.9524V98.0276H62.5795H64.1539H64.2295V97.9524V85.3692V85.2941H64.1539H62.5795Z" fill="#0F0F0F"/>
<path d="M54.2409 85.3376L54.0494 84.929L53.9812 84.7836L53.9123 84.9286L47.7385 97.9203L47.6876 98.0277H47.8071H49.5669H49.6148L49.6353 97.9845L53.9731 88.8741L58.2688 97.9843L58.2893 98.0277H58.3374H60.0742H60.1931L60.1431 97.9205L54.2409 85.3376Z" fill="#0F0F0F"/>
<path d="M42.3028 92.1246C41.1617 91.2862 40.4794 90.7616 40.2748 90.5653C39.9058 90.1988 39.6481 89.8549 39.5099 89.5453C39.3722 89.2374 39.3022 88.9143 39.3022 88.5854C39.3022 88.0482 39.498 87.59 39.8837 87.2235C40.271 86.8554 40.7778 86.6691 41.3901 86.6691H41.4657V86.5939V84.9771V84.9013L41.3896 84.9019C40.6905 84.9068 40.0349 85.0722 39.4417 85.3937C38.8357 85.7224 38.3591 86.1779 38.0258 86.7478C37.6919 87.3177 37.5226 87.9574 37.5226 88.6494C37.5226 89.5209 37.8089 90.3423 38.3733 91.0907C38.7007 91.5397 39.5081 92.245 40.8408 93.2462C42.1361 94.2175 43.0387 95.0575 43.5241 95.743C43.8702 96.2312 44.0455 96.7362 44.0455 97.2437C44.0455 97.4645 44.0106 97.6894 43.9388 97.9312L43.91 98.0277H44.0113H45.7556H45.8186L45.8298 97.9657C45.8771 97.7075 45.8998 97.4609 45.8998 97.2117C45.8998 96.4129 45.6401 95.6072 45.1277 94.8174C44.6173 94.0318 43.667 93.1261 42.3028 92.1246Z" fill="#0F0F0F"/>
<path d="M75.8247 84.901L75.8033 84.8999C73.3597 84.8999 71.2968 85.6973 69.672 87.2696C68.0471 88.8425 67.2232 90.8081 67.2232 93.1118C67.2232 94.9541 67.7115 96.5968 68.6747 97.995L68.697 98.0276H68.737H70.8611H71.0432L70.9149 97.8994C69.6673 96.6521 69.0345 95.0879 69.0345 93.25C69.0345 92.0056 69.3286 90.8698 69.9083 89.8746C70.4878 88.8792 71.3161 88.0755 72.3702 87.4848C73.4249 86.8941 74.5873 86.5945 75.8247 86.5945H75.9006V86.5194V84.9762V84.9012L75.8247 84.901Z" fill="#0F0F0F"/>
<path d="M27.5759 84.8815C22.9467 84.8815 19.1808 88.6259 19.1808 93.2286C19.1808 94.9444 19.7051 96.5964 20.6975 98.0062L20.7257 98.046H20.7747H22.8932H23.1227L22.9591 97.8858C21.6938 96.6456 20.997 94.9919 20.997 93.2286C20.997 89.6218 23.9482 86.6874 27.5759 86.6874C31.2035 86.6874 34.1549 89.6218 34.1549 93.2286C34.1549 94.9919 33.4579 96.6456 32.1925 97.8858L32.0292 98.046H32.2587H34.3772H34.426L34.4541 98.0062C35.4466 96.5964 35.9711 94.9444 35.9711 93.2286C35.9711 88.6259 32.2051 84.8815 27.5759 84.8815Z" fill="#0F0F0F"/>
</g>
</mask>
<g mask="url(#mask0_4034_735)">
<rect width="156" height="208" transform="matrix(-4.37114e-08 1 1 4.37114e-08 -60 -21)" fill="white"/>
<rect width="223.53" height="297.792" transform="matrix(0.501051 -0.865418 -0.866631 -0.498949 125.076 249.03)" fill="#A36217"/>
</g>
</g>
<defs>
<clipPath id="clip0_4034_735">
<rect width="76" height="98" fill="white"/>
</clipPath>
</defs>
</svg>
